<svg width="566" height="220" viewBox="0 0 566 220" fill="none" xmlns="http://www.w3.org/2000/svg">
<g clip-path="url(#clip0_5003_2025)">
<path d="M152.159 116.593V129.986H165.555V116.593H152.159ZM138.831 129.986H125.372V116.593H138.831V103.197H125.372V89.8219H111.981V103.197H98.5901V89.8004H111.974V76.4096H98.5901V63H85.1899V76.4096H71.7911V63H58.4029V76.4096H45V89.8004H58.4029V103.197H45V116.593H58.4029V129.986H45V143.377H58.4029V156.76H71.7911V143.377H85.1899V156.76H98.5901V143.377H111.981V156.792H125.372V143.377H138.816V156.768H152.21V143.372H138.832L138.831 129.986ZM85.1899 129.986H71.7911V116.593H85.1899V129.986ZM85.1899 103.197H71.7911V89.8004H85.1899V103.197ZM111.981 129.986H98.5901V116.593H111.981V129.986Z" fill="white"/>
<path d="M199.65 143.628C195.665 143.628 192.64 142.743 190.506 140.679L192.125 135.961C193.456 137.285 195.739 138.462 198.909 138.462C202.08 138.462 204.587 136.254 204.587 133.014C204.587 128.956 202.599 127.333 198.909 124.676C195.151 121.873 191.168 118.26 191.168 112.879C191.168 106.978 195.368 102.403 201.266 102.403C204.963 102.403 207.83 103.507 209.822 105.352L208.205 109.482C206.948 108.302 204.808 107.195 202.159 107.195C199.356 107.195 197.286 109.558 197.286 112.288C197.286 115.972 199.87 118.04 203.407 120.544C207.539 123.57 211.078 126.667 211.078 132.789C211.078 138.98 205.988 143.628 199.65 143.628Z" fill="white"/>
<path d="M230.706 142.889H225.47L214.328 103.138H220.676L228.199 134.041H228.269L236.091 103.138H241.836L230.706 142.889Z" fill="white"/>
<path d="M249.989 125.413C250.439 133.968 253.899 138.534 259.652 138.534C263.707 138.534 266.588 137.213 268.059 136.105L269.605 140.677C267.544 142.297 263.779 143.626 259.209 143.626C250.212 143.626 244.019 137.063 244.019 122.902C244.019 109.701 249.626 102.4 257.73 102.4C266.139 102.4 271.007 109.259 270.713 122.902L249.989 125.413ZM257.59 107.193C253.163 107.193 249.769 112.286 249.769 121.278L264.443 119.362C264.301 111.177 262.013 107.193 257.59 107.193Z" fill="white"/>
<path d="M288.266 143.182C283.182 143.182 279.713 139.794 279.713 133.155V107.565H276.168V103.137H279.713V93.9991L285.759 91.7119V103.137H291.736V107.565H285.759V132.712C285.759 136.921 287.453 138.391 289.811 138.391C290.479 138.391 291.141 138.245 291.736 138.097V142.59C291.141 142.889 289.74 143.182 288.266 143.182Z" fill="white"/>
<path d="M351.538 142.889V114.128C351.538 109.63 349.183 107.047 345.423 107.047C342.908 107.047 340.841 108.08 339.155 110.146V142.89H333.03V114.204C333.03 110.075 330.376 106.976 326.165 106.976C323.517 106.976 322.117 107.344 320.568 108.08V142.889H314.441V105.35C317.39 103.505 320.638 102.401 326.316 102.401C331.629 102.401 334.804 104.249 336.569 106.753C339.155 103.878 342.316 102.401 346.961 102.401C352.941 102.401 357.733 106.528 357.733 114.128V142.889H351.538Z" fill="white"/>
<path d="M369.871 125.413C370.31 133.968 373.78 138.534 379.53 138.534C383.591 138.534 386.461 137.213 387.935 136.105L389.487 140.677C387.422 142.297 383.655 143.626 379.08 143.626C370.093 143.626 363.899 137.063 363.899 122.902C363.899 109.701 369.495 102.4 377.61 102.4C386.012 102.4 390.883 109.259 390.591 122.902L369.871 125.413ZM377.469 107.193C373.039 107.193 369.651 112.286 369.651 121.278L384.321 119.362C384.181 111.177 381.891 107.193 377.469 107.193Z" fill="white"/>
<path d="M408.282 143.182C403.189 143.182 399.726 139.794 399.726 133.155V107.565H396.184V103.137H399.728V93.9991L405.771 91.7119V103.137H411.75V107.565H405.771V132.712C405.771 136.921 407.474 138.391 409.829 138.391C410.492 138.391 411.159 138.245 411.75 138.097V142.59C411.158 142.889 409.753 143.182 408.282 143.182Z" fill="white"/>
<path d="M432.699 107.859C430.05 106.755 427.096 107.05 425.102 108.304V142.891H418.981V105.351C422.445 103.289 425.628 102.252 434.18 102.402L432.699 107.859Z" fill="white"/>
<path d="M451.203 143.627C442.505 143.627 438.307 138.835 438.307 131.678C438.307 121.134 446.858 118.035 456.735 116.785V114.866C456.735 109.26 453.864 107.12 449.807 107.12C446.56 107.12 443.54 108.377 441.765 109.481L440.369 105.354C442.362 104.031 446.045 102.405 450.687 102.405C456.892 102.405 462.565 105.577 462.565 115.456V140.678C459.915 142.446 456.147 143.627 451.203 143.627ZM456.735 120.764C448.557 122.019 444.131 124.229 444.131 131.607C444.131 136.768 446.858 139.421 451.651 139.421C453.639 139.421 455.637 138.905 456.667 138.317L456.735 120.764Z" fill="white"/>
<path d="M468.761 142.888L482.918 107.564H469.945V103.136H490.808L477.012 138.39H491.03V142.888H468.761ZM482.034 97.9773C481.44 98.7102 480.707 99.0104 479.969 99.0104C479.236 99.0104 478.49 98.7089 477.894 97.9773L471.78 90.5235L473.33 88.9746L479.966 94.436L486.678 88.9746L488.149 90.5235L482.034 97.9773Z" fill="white"/>
<path d="M501.276 125.413C501.71 133.968 505.181 138.534 510.93 138.534C514.988 138.534 517.857 137.213 519.34 136.105L520.885 140.677C518.815 142.297 515.055 143.626 510.49 143.626C501.484 143.626 495.292 137.063 495.292 122.902C495.292 109.701 500.9 102.4 509.013 102.4C517.415 102.4 522.283 109.259 521.984 122.902L501.276 125.413ZM508.867 107.193C504.442 107.193 501.054 112.286 501.054 121.278L515.729 119.362C515.575 111.177 513.291 107.193 508.867 107.193Z" fill="white"/>
</g>
<defs>
<clipPath id="clip0_5003_2025">
<rect width="477" height="93.7921" fill="white" transform="translate(45 63)"/>
</clipPath>
</defs>
</svg>
